<?xml version="1.0" encoding="UTF-8" standalone="no"?>
<svg
   width="369"
   height="410"
   viewBox="0 0 369 410"
   fill="none"
   version="1.1"
   id="svg7"
   sodipodi:docname="editian_icon.svg"
   inkscape:version="1.4.3 (0d15f75042, 2025-12-25)"
   xmlns:inkscape="http://www.inkscape.org/namespaces/inkscape"
   xmlns:sodipodi="http://sodipodi.sourceforge.net/DTD/sodipodi-0.dtd"
   xmlns="http://www.w3.org/2000/svg"
   xmlns:svg="http://www.w3.org/2000/svg">
  <defs
     id="defs7" />
  <sodipodi:namedview
     id="namedview7"
     pagecolor="#ffffff"
     bordercolor="#999999"
     borderopacity="1"
     inkscape:showpageshadow="0"
     inkscape:pageopacity="0"
     inkscape:pagecheckerboard="0"
     inkscape:deskcolor="#d1d1d1"
     inkscape:zoom="0.68457031"
     inkscape:cx="184.78745"
     inkscape:cy="209.62054"
     inkscape:window-width="2560"
     inkscape:window-height="926"
     inkscape:window-x="0"
     inkscape:window-y="120"
     inkscape:window-maximized="1"
     inkscape:current-layer="svg7" />
  <!-- Document -->
  <path
     d="m 38,12 h 238 l 81,81 v 279 c 0,14.359 -11.641,26 -26,26 H 38 C 23.641,398 12,386.359 12,372 V 38 C 12,23.641 23.641,12 38,12 Z"
     fill="none"
     stroke="#0f2d5c"
     stroke-width="24"
     stroke-linejoin="round"
     id="path2" />
  <path
     d="m 276,12 v 55 c 0,14.359 11.641,26 26,26 h 55"
     fill="#0f2d5c"
     id="path3" />
  <!-- Sparkles inside paper -->
  <path
     d="m 213,88 c 7,20 20,33 40,40 -20,7 -33,20 -40,40 -7,-20 -20,-33 -40,-40 20,-7 33,-20 40,-40 z"
     fill="#0f2d5c"
     id="path4" />
  <path
     d="m 273,128 c 6,17 17,28 34,34 -17,6 -28,17 -34,34 -6,-17 -17,-28 -34,-34 17,-6 28,-17 34,-34 z"
     fill="#0f2d5c"
     id="path5" />
  <!-- Text lines -->
  <rect
     x="83"
     y="198"
     width="120"
     height="18"
     rx="9"
     fill="#2a4b7d"
     id="rect5"
     ry="9" />
  <rect
     x="83"
     y="248"
     width="185"
     height="18"
     rx="9"
     fill="#0f2d5c"
     id="rect6"
     ry="9" />
  <rect
     x="83"
     y="298"
     width="100"
     height="18"
     rx="9"
     fill="#2a4b7d"
     id="rect7"
     ry="9" />
</svg>
